HIERARCHY
ROOT Hips
{
	OFFSET 0.0000 0.0000 0.0000
	CHANNELS 6 Xposition Yposition Zposition Zrotation Xrotation Yrotation
	JOINT Ab
	{
		OFFSET -0.0000 8.1305 -0.0000
		CHANNELS 3 Zrotation Xrotation Yrotation
		JOINT Chest
		{
			OFFSET -0.0000 26.2902 -0.0000
			CHANNELS 3 Zrotation Xrotation Yrotation
			JOINT Neck
			{
				OFFSET -0.0000 26.2902 0.0000
				CHANNELS 3 Zrotation Xrotation Yrotation
				JOINT Head
				{
					OFFSET -0.0000 10.8167 0.0000
					CHANNELS 3 Zrotation Xrotation Yrotation
					End Site
					{
						OFFSET -0.0000 16.7167 0.0000
					}
				}
			}
			JOINT LeftCollar
			{
				OFFSET -0.0000 26.2902 0.0000
				CHANNELS 3 Zrotation Xrotation Yrotation
				JOINT LeftShoulder
				{
					OFFSET 19.6667 -0.0000 0.0000
					CHANNELS 3 Zrotation Xrotation Yrotation
					JOINT LeftElbow
					{
						OFFSET 27.2190 0.0000 0.0000
						CHANNELS 3 Zrotation Xrotation Yrotation
						JOINT LeftWrist
						{
							OFFSET 30.7431 0.0000 0.0000
							CHANNELS 3 Zrotation Xrotation Yrotation
							End Site
							{
								OFFSET 0.0000 -14.7500 0.0000
							}
						}
					}
				}
			}
			JOINT RightCollar
			{
				OFFSET -0.0000 26.2902 0.0000
				CHANNELS 3 Zrotation Xrotation Yrotation
				JOINT RightShoulder
				{
					OFFSET -19.6667 0.0000 0.0000
					CHANNELS 3 Zrotation Xrotation Yrotation
					JOINT RightElbow
					{
						OFFSET -27.2190 0.0000 0.0000
						CHANNELS 3 Zrotation Xrotation Yrotation
						JOINT RightWrist
						{
							OFFSET -30.7431 0.0000 0.0000
							CHANNELS 3 Zrotation Xrotation Yrotation
							End Site
							{
								OFFSET -0.0000 -14.7500 0.0000
							}
						}
					}
				}
			}
		}
	}
	JOINT LeftHip
	{
		OFFSET 11.8000 0.0000 0.0000
		CHANNELS 3 Zrotation Xrotation Yrotation
		JOINT LeftKnee
		{
			OFFSET -0.0000 -39.7832 0.0000
			CHANNELS 3 Zrotation Xrotation Yrotation
			JOINT LeftAnkle
			{
				OFFSET -0.0000 -41.7317 0.0000
				CHANNELS 3 Zrotation Xrotation Yrotation
				End Site
				{
					OFFSET -0.0000 -4.9167 16.7167
				}
			}
		}
	}
	JOINT RightHip
	{
		OFFSET -11.8000 0.0000 0.0000
		CHANNELS 3 Zrotation Xrotation Yrotation
		JOINT RightKnee
		{
			OFFSET -0.0000 -39.7832 0.0000
			CHANNELS 3 Zrotation Xrotation Yrotation
			JOINT RightAnkle
			{
				OFFSET -0.0000 -41.7317 0.0000
				CHANNELS 3 Zrotation Xrotation Yrotation
				End Site
				{
					OFFSET -0.0000 -4.9167 16.7167
				}
			}
		}
	}
}
MOTION
Frames: 24
Frame Time: 0.010000
-18.1836 97.0076 176.2186 358.3522 357.1068 179.5576 357.8522 348.0683 0.1594 2.4297 8.9274 0.1984 0.1513 358.6925 0.7847 353.5192 2.4953 0.9227 339.1011 357.3400 14.4586 316.7471 57.4770 341.1294 11.2166 356.9426 329.3534 86.8309 357.5479 349.1434 27.7806 355.8768 343.4690 46.6645 42.1786 1.0254 340.7709 354.5496 31.5097 270.7147 355.0125 11.0269 356.4261 2.8666 358.9196 357.9101 6.8172 4.8014 354.4021 351.2454 14.8218 358.5142 6.3785 10.9288 5.9682 4.4704 8.8722 348.6703 345.0033 313.1390 
-18.1920 97.0029 176.2111 358.3512 357.0835 179.5676 357.8639 348.0702 0.1673 2.4323 8.9373 0.1867 0.1129 358.6809 0.8005 353.5524 2.5093 0.9397 339.1142 357.3180 14.4788 316.6911 57.5152 341.1477 11.2716 356.8962 329.3581 86.8645 357.5510 349.1841 27.7843 355.8898 343.4659 46.6248 42.1948 1.0547 340.8144 354.5435 31.4810 270.6974 355.0561 11.0631 356.4200 2.8161 358.9096 357.9019 6.8791 4.7958 354.4891 351.2402 14.8260 358.5064 6.3616 10.9128 5.9713 4.4722 8.8759 348.6349 345.0165 313.1414 
-18.2040 96.9992 176.1964 358.3508 357.0717 179.5832 357.8683 348.0782 0.1639 2.4342 8.9498 0.1907 0.1571 358.6511 0.7974 353.4904 2.5514 0.9376 339.1172 357.3349 14.4826 316.6746 57.5060 341.1466 11.2095 356.9143 329.3480 86.8789 357.5783 349.1495 27.7756 355.8783 343.4651 46.6432 42.1703 1.0436 340.7735 354.5399 31.5156 270.7185 355.1140 10.9725 356.4122 2.7886 358.8760 357.8931 6.9289 4.7872 354.3530 351.1312 15.0326 358.4993 6.3668 10.9048 5.9721 4.4614 8.8456 348.6186 345.0300 313.1669 
-18.2136 96.9941 176.1842 358.3491 357.0508 179.6057 357.8583 348.0813 0.1622 2.4487 8.9582 0.1911 0.1939 358.6341 0.7912 353.4431 2.5737 0.9335 339.1361 357.3217 14.4756 316.6182 57.5495 341.1603 11.2867 356.8916 329.3724 86.7986 357.5472 349.1540 27.7703 355.8917 343.4545 46.6474 42.1441 1.0446 340.8066 354.5434 31.5190 270.7180 355.1004 11.0347 356.4076 2.7309 358.8409 357.8837 7.0158 4.7618 354.3478 351.0558 15.0766 358.4894 6.3595 10.9076 5.9800 4.4606 8.8632 348.6119 345.0218 313.1283 
-18.2229 96.9891 176.1717 358.3522 357.0288 179.6140 357.8529 348.0932 0.1695 2.4693 8.9471 0.2024 0.2029 358.6343 0.7966 353.4353 2.5876 0.9403 339.1315 357.3282 14.4714 316.5857 57.5600 341.1980 11.2550 356.8975 329.3581 86.8738 357.5609 349.1866 27.7614 355.8931 343.4443 46.6584 42.1646 1.0407 340.7373 354.5104 31.5479 271.1867 354.9421 10.3096 356.4081 2.6751 358.8263 357.8726 7.1006 4.7298 354.3442 351.0073 15.1192 358.4878 6.3483 10.8970 5.9795 4.4579 8.8522 348.6338 344.9836 313.1400 
-18.2377 96.9863 176.1578 358.3456 357.0054 179.6257 357.8315 348.1251 0.1868 2.4982 8.8943 0.2131 0.1837 358.6486 0.7973 353.4942 2.6038 0.9405 339.1138 357.3236 14.4603 316.5702 57.5972 341.2377 11.2664 356.8931 329.3686 86.7441 357.5402 349.1056 27.7383 355.8774 343.4144 46.7009 42.2050 1.0053 340.6820 354.5041 31.5418 271.2879 354.8929 10.0240 356.3923 2.6242 358.7836 357.8632 7.1752 4.7280 354.3746 350.9552 15.1394 358.4702 6.3349 10.8499 5.9859 4.4664 8.8656 348.6407 344.9689 313.1488 
-18.2503 96.9818 176.1464 358.3536 356.9775 179.6412 357.8352 348.1274 0.1909 2.5106 8.9025 0.2158 0.1893 358.6172 0.7851 353.4995 2.6420 0.9314 339.1136 357.3352 14.4395 316.5320 57.5925 341.2758 11.2639 356.8880 329.3493 86.7300 357.5541 349.0798 27.7277 355.8832 343.4006 46.7198 42.2000 0.9954 340.7060 354.5060 31.5449 271.2516 354.8877 10.0511 356.3940 2.5602 358.7491 357.8503 7.2594 4.7111 354.3786 350.8862 15.1603 358.4704 6.3129 10.8332 5.9881 4.4752 8.8662 348.6556 344.9482 313.1413 
-18.2644 96.9771 176.1304 358.3559 356.9601 179.6423 357.8458 348.1349 0.1985 2.5121 8.9153 0.2231 0.1852 358.6020 0.7813 353.5070 2.6633 0.9281 339.1240 357.3306 14.4344 316.4829 57.6093 341.3080 11.3124 356.8794 329.3391 86.7854 357.5663 349.1627 27.7224 355.8805 343.3999 46.7289 42.2207 0.9894 340.6968 354.5063 31.5453 271.2027 354.8705 10.0502 356.3873 2.5112 358.7385 357.8450 7.3417 4.6827 354.3711 350.8182 15.1871 358.4592 6.3084 10.8781 5.9989 4.4644 8.8152 348.6535 344.9309 313.1408 
-18.2806 96.9737 176.1095 358.3542 356.9461 179.6369 357.8610 348.1346 0.2071 2.5019 8.9418 0.2310 0.1947 358.5962 0.7878 353.5010 2.6673 0.9349 339.1240 357.3333 14.4247 316.4572 57.5853 341.3439 11.2961 356.8819 329.3244 86.8337 357.5715 349.1798 27.7235 355.8767 343.4045 46.7213 42.2443 0.9931 340.7038 354.5132 31.5456 271.1619 354.8762 10.0502 356.3767 2.4782 358.7082 357.8305 7.4101 4.6585 354.4229 350.7651 15.2389 358.4429 6.3065 10.9065 6.0077 4.4634 8.7921 348.6493 344.9088 313.1352 
-18.2988 96.9705 176.0898 358.3526 356.9229 179.6312 357.8719 348.1295 0.2174 2.5028 8.9660 0.2413 0.1884 358.5803 0.7921 353.5069 2.6801 0.9404 339.1202 357.3302 14.4172 316.4335 57.5707 341.3726 11.3002 356.8816 329.3118 86.8139 357.5647 349.1867 27.7252 355.8765 343.4018 46.6902 42.2555 1.0147 340.7327 354.5110 31.5497 271.1268 354.8945 10.0595 356.3618 2.4243 358.6732 357.8214 7.5013 4.6502 354.4743 350.7056 15.2763 358.4244 6.2887 10.8977 6.0129 4.4798 8.8105 348.6599 344.8807 313.1368 
-18.3217 96.9667 176.0687 358.3417 356.8983 179.6267 357.8806 348.1271 0.2273 2.4971 8.9794 0.2479 0.1593 358.5771 0.7929 353.5388 2.6914 0.9422 339.1225 357.3337 14.4274 316.4195 57.5748 341.3714 11.3066 356.8899 329.3124 86.8038 357.5677 349.2143 27.7293 355.8794 343.4243 46.6898 42.2346 0.9930 340.7705 354.5214 31.5378 270.8910 354.9631 10.4810 356.3300 2.3654 358.6321 357.8180 7.5958 4.6455 354.4960 350.6375 15.3266 358.3918 6.2674 10.8601 6.0205 4.5049 8.8509 348.6748 344.8385 313.1327 
-18.3443 96.9628 176.0383 358.3316 356.8855 179.6248 357.8935 348.1270 0.2338 2.4786 8.9920 0.2514 0.1414 358.5996 0.7965 353.5735 2.6889 0.9454 339.1291 357.3246 14.4353 316.4035 57.5838 341.3867 11.3222 356.8918 329.3158 86.7742 357.5770 349.2281 27.7498 355.8860 343.4787 46.7161 42.1582 0.9160 340.8350 354.5409 31.5321 270.5939 355.0439 11.0332 356.3017 2.3265 358.5772 357.8098 7.6886 4.6461 354.5033 350.5580 15.3698 358.3649 6.2654 10.8139 6.0219 4.5301 8.8869 348.6871 344.7901 313.1291 
-18.3667 96.9577 176.0047 358.3270 356.8735 179.6280 357.9039 348.1253 0.2379 2.4679 9.0071 0.2570 0.1450 358.6178 0.8013 353.5787 2.6988 0.9495 339.1313 357.3138 14.4283 316.3490 57.5620 341.4586 11.3232 356.9025 329.3045 86.7840 357.5725 349.2625 27.7427 355.8818 343.4813 46.7423 42.1984 0.9157 340.7894 354.5357 31.4948 270.6320 355.0280 11.0002 356.2822 2.2927 358.5364 357.7959 7.7755 4.6676 354.5686 350.5063 15.3860 358.3430 6.2687 10.7916 6.0285 4.5504 8.9092 348.7112 344.7347 313.1179 
-18.3894 96.9517 175.9780 358.3283 356.8519 179.6328 357.9175 348.1311 0.2428 2.4594 9.0122 0.2611 0.1687 358.6149 0.8068 353.5581 2.7253 0.9565 339.1305 357.3261 14.4215 316.2905 57.4971 341.5360 11.2637 356.9168 329.2865 86.8091 357.5719 349.2274 27.7459 355.8916 343.4841 46.7489 42.2284 0.9115 340.7813 354.5450 31.4871 270.6312 355.0437 10.9830 356.2677 2.2440 358.5105 357.7881 7.8641 4.6526 354.6237 350.4493 15.4165 358.3237 6.2556 10.7916 6.0426 4.5724 8.9142 348.7349 344.6789 313.0997 
-18.4133 96.9455 175.9475 358.3359 356.8278 179.6491 357.9309 348.1299 0.2423 2.4581 9.0305 0.2612 0.2005 358.5943 0.8079 353.5283 2.7554 0.9604 339.1516 357.3126 14.4348 316.2471 57.5126 341.5431 11.3188 356.8911 329.3082 86.7081 357.5827 349.1564 27.7377 355.8811 343.4732 46.7610 42.2596 0.9228 340.7520 354.5203 31.4755 270.6648 355.0440 11.0203 356.2634 2.2017 358.4577 357.7730 7.9357 4.6427 354.5133 350.3829 15.4498 358.3140 6.2483 10.7951 6.0499 4.5834 8.8992 348.7246 344.6507 313.0944 
-18.4394 96.9408 175.9122 358.3323 356.8096 179.6567 357.9218 348.1286 0.2541 2.4858 9.0530 0.2668 0.1733 358.5872 0.8073 353.5485 2.7734 0.9618 339.1520 357.3228 14.4441 316.1889 57.4918 341.5787 11.2743 356.8947 329.3014 86.7559 357.5920 349.1352 27.7325 355.8871 343.4728 46.7417 42.2543 0.9282 340.7665 354.5339 31.5033 270.6515 355.0502 11.0126 356.2444 2.1735 358.4197 357.7611 8.0033 4.6354 354.3791 350.3092 15.4890 358.2921 6.2394 10.7829 6.0584 4.6146 8.8869 348.7446 344.5831 313.0962 
-18.4687 96.9357 175.8793 358.3314 356.7815 179.6675 357.9290 348.1223 0.2559 2.4905 9.0769 0.2699 0.1473 358.5621 0.7975 353.5918 2.7967 0.9507 339.1588 357.3106 14.4518 316.2112 57.5193 341.5281 11.2924 356.8820 329.3383 86.7726 357.5241 349.0959 27.7271 355.8765 343.4455 46.7089 42.2719 0.9818 340.7617 354.5237 31.4941 270.6417 355.0687 10.9975 356.2238 2.1177 358.3687 357.7498 8.1084 4.5910 354.4216 350.2254 15.5571 358.2710 6.2190 10.7206 6.0637 4.6526 8.9150 348.7567 344.5283 313.1050 
-18.4988 96.9324 175.8386 358.3254 356.7541 179.6777 357.9008 348.1143 0.2738 2.5413 9.0887 0.2844 0.1417 358.5504 0.8003 353.6005 2.8146 0.9547 339.1382 357.3266 14.4680 316.2359 57.5222 341.4886 11.2244 356.9208 329.2950 87.3349 357.6504 349.3983 27.7035 355.8985 343.4179 46.6783 42.2791 1.0371 340.7668 354.5594 31.4639 270.7438 355.1525 11.2079 356.1994 2.0760 358.3333 357.7418 8.1904 4.5508 354.5140 350.1622 15.5972 358.2405 6.2113 10.7513 6.0822 4.6689 8.8925 348.7538 344.4834 313.0753 
-18.5304 96.9289 175.7959 358.3213 356.7247 179.6954 357.9055 348.1198 0.2750 2.5242 9.0629 0.2915 0.1824 358.5684 0.7906 353.6145 2.8244 0.9438 339.1577 357.3342 14.4442 316.2115 57.5410 341.5187 11.2425 356.9071 329.2841 87.5570 357.6614 349.5266 27.6920 355.8805 343.3790 46.7105 42.3263 1.0461 340.7739 354.5306 31.4204 270.5370 355.0222 10.9693 356.1760 2.0354 358.2758 357.7333 8.2720 4.5010 354.5210 350.0580 15.6611 358.2179 6.1948 10.6957 6.0837 4.7095 8.8787 348.7834 344.4098 313.1164 
-18.5625 96.9227 175.7594 358.3242 356.6866 179.7057 357.9258 348.1182 0.2799 2.5091 9.0595 0.2910 0.1849 358.5594 0.7864 353.6099 2.8496 0.9414 339.1592 357.3331 14.4686 316.2542 57.5502 341.4772 11.2280 356.8822 329.2912 87.5059 357.6745 349.5085 27.7047 355.8916 343.3916 46.7044 42.3368 1.0332 340.8220 354.5333 31.4382 270.4483 355.0396 10.9654 356.1634 1.9670 358.2017 357.7061 8.3837 4.4819 354.5892 349.9660 15.7238 358.1974 6.1588 10.6712 6.0989 4.7603 8.8903 348.7891 344.3405 313.1027 
-18.5966 96.9134 175.7010 358.3341 356.6873 179.7172 357.9569 348.1288 0.2850 2.4882 9.0829 0.2985 0.1880 358.5542 0.7754 353.6289 2.8651 0.9292 339.1636 357.3102 14.4816 316.2527 57.5429 341.4897 11.2439 356.9045 329.2925 87.4277 357.6447 349.4995 27.7097 355.8752 343.4108 46.7354 42.3514 0.9984 340.7641 354.5344 31.4277 270.5037 355.0232 10.9159 356.1508 1.9687 358.1427 357.6983 8.4663 4.4242 354.7544 349.8663 15.7926 358.1839 6.1721 10.5807 6.1093 4.8248 8.9588 348.7849 344.2526 313.0894 
-18.6345 96.9063 175.6464 358.3351 356.6682 179.7226 357.9661 348.1270 0.3016 2.4971 9.1063 0.3068 0.1776 358.5202 0.7726 353.6401 2.8979 0.9309 339.1583 357.3167 14.4937 316.2223 57.5144 341.5200 11.1952 356.9136 329.2807 87.4620 357.6339 349.4792 27.7148 355.8864 343.4312 46.7284 42.3212 0.9739 340.8045 354.5314 31.4466 270.4859 354.9994 10.9812 356.1213 1.9383 358.1144 357.7028 8.5699 4.3605 354.9591 349.7650 15.8521 358.1508 6.1574 10.4796 6.1286 4.8954 9.0411 348.7911 344.1656 313.0812 
-18.6729 96.8996 175.5958 358.3368 356.6293 179.7366 357.9823 348.1045 0.3081 2.4906 9.1356 0.3054 0.1583 358.4955 0.7647 353.6765 2.9102 0.9220 339.1884 357.3087 14.5008 316.1672 57.5224 341.5193 11.2465 356.9017 329.3198 87.3147 357.5372 349.3268 27.6942 355.8786 343.3979 46.7126 42.4110 1.0510 340.7672 354.5266 31.3940 270.5023 355.0002 10.9530 356.0959 1.8785 358.0381 357.6937 8.6760 4.3448 355.0097 349.6518 15.9070 358.1241 6.1169 10.4641 6.1476 4.9731 9.0289 348.8313 344.0508 313.0813 
-18.7156 96.8925 175.5489 358.3328 356.5784 179.7608 357.9407 348.1182 0.3240 2.5528 9.0742 0.3377 0.1348 358.5289 0.7574 353.7538 2.9029 0.9127 339.1800 357.3338 14.4779 316.1055 57.5442 341.5775 11.2067 356.9007 329.3301 87.2426 357.5162 349.2251 27.6553 355.8952 343.3743 46.7593 42.4148 1.0183 340.7592 354.5125 31.4275 270.6497 355.0165 10.6956 356.0656 1.7982 357.9308 357.6786 8.8048 4.3124 355.3008 349.5392 15.9665 358.0854 6.0543 10.3971 6.1795 5.0727 9.0790 348.8153 343.9538 313.0508 
